HIERARCHY
ROOT hip
{
  OFFSET 47.8615 78.0283 2.74043
  CHANNELS 6 Xposition Yposition Zposition Zrotation Xrotation Yrotation
  JOINT abdomen
  {
    OFFSET 0 20.6881 -0.73152
    CHANNELS 3 Zrotation Xrotation Yrotation
    JOINT chest
    {
      OFFSET 0 11.7043 -0.48768
      CHANNELS 3 Zrotation Xrotation Yrotation
      JOINT neck
      {
        OFFSET 0 22.1894 -2.19456
        CHANNELS 3 Zrotation Xrotation Yrotation
        JOINT head
        {
          OFFSET -0.24384 7.07133 1.2192
          CHANNELS 3 Zrotation Xrotation Yrotation
          JOINT leftEye
          {
            OFFSET 4.14528 8.04674 8.04672
            CHANNELS 3 Zrotation Xrotation Yrotation
            End Site
            {
              OFFSET 1 0 0
            }
          }
          JOINT rightEye
          {
            OFFSET -3.6576 8.04674 8.04672
            CHANNELS 3 Zrotation Xrotation Yrotation
            End Site
            {
              OFFSET 1 0 0
            }
          }
        }
      }
      JOINT rCollar
      {
        OFFSET -2.68224 19.2634 -4.8768
        CHANNELS 3 Zrotation Xrotation Yrotation
        JOINT rShldr
        {
          OFFSET -8.77824 -1.95073 1.46304
          CHANNELS 3 Zrotation Xrotation Yrotation
          JOINT rForeArm
          {
            OFFSET -28.1742 -1.7115 0.48768
            CHANNELS 3 Zrotation Xrotation Yrotation
            JOINT rHand
            {
              OFFSET -22.5879 0.773209 7.07136
              CHANNELS 3 Zrotation Xrotation Yrotation
              JOINT rThumb1
              {
                OFFSET -1.2192 -0.487915 3.41376
                CHANNELS 3 Zrotation Xrotation Yrotation
                JOINT rThumb2
                {
                  OFFSET -3.37035 -0.52449 3.41376
                  CHANNELS 3 Zrotation Xrotation Yrotation
                  End Site
                  {
                    OFFSET -1.78271 -1.18214 1.43049
                  }
                }
              }
              JOINT rIndex1
              {
                OFFSET -7.75947 0.938293 5.60832
                CHANNELS 3 Zrotation Xrotation Yrotation
                JOINT rIndex2
                {
                  OFFSET -2.54057 -0.884171 1.56538
                  CHANNELS 3 Zrotation Xrotation Yrotation
                  End Site
                  {
                    OFFSET -1.62519 -0.234802 1.16502
                  }
                }
              }
              JOINT rMid1
              {
                OFFSET -8.24714 1.18213 3.41376
                CHANNELS 3 Zrotation Xrotation Yrotation
                JOINT rMid2
                {
                  OFFSET -3.10165 -0.590103 1.0647
                  CHANNELS 3 Zrotation Xrotation Yrotation
                  End Site
                  {
                    OFFSET -2.48547 -0.328903 0.83742
                  }
                }
              }
              JOINT rRing1
              {
                OFFSET -8.82822 0.546677 1.51678
                CHANNELS 3 Zrotation Xrotation Yrotation
                JOINT rRing2
                {
                  OFFSET -2.60934 -0.819778 -0.0198488
                  CHANNELS 3 Zrotation Xrotation Yrotation
                  End Site
                  {
                    OFFSET -2.33842 -0.294052 0.168128
                  }
                }
              }
              JOINT rPinky1
              {
                OFFSET -8.27202 -0.0477905 -0.4584
                CHANNELS 3 Zrotation Xrotation Yrotation
                JOINT rPinky2
                {
                  OFFSET -1.82734 -0.647385 -0.700984
                  CHANNELS 3 Zrotation Xrotation Yrotation
                  End Site
                  {
                    OFFSET -1.69225 -0.51767 -0.607171
                  }
                }
              }
            }
          }
        }
      }
      JOINT lCollar
      {
        OFFSET 2.68224 19.2634 -4.8768
        CHANNELS 3 Zrotation Xrotation Yrotation
        JOINT lShldr
        {
          OFFSET 8.77824 -1.95073 1.46304
          CHANNELS 3 Zrotation Xrotation Yrotation
          JOINT lForeArm
          {
            OFFSET 28.1742 -1.7115 0.48768
            CHANNELS 3 Zrotation Xrotation Yrotation
            JOINT lHand
            {
              OFFSET 22.5879 0.773209 7.07136
              CHANNELS 3 Zrotation Xrotation Yrotation
              JOINT lThumb1
              {
                OFFSET 1.2192 -0.487915 3.41376
                CHANNELS 3 Zrotation Xrotation Yrotation
                JOINT lThumb2
                {
                  OFFSET 3.37035 -0.52449 3.41376
                  CHANNELS 3 Zrotation Xrotation Yrotation
                  End Site
                  {
                    OFFSET 1.78271 -1.18214 1.43049
                  }
                }
              }
              JOINT lIndex1
              {
                OFFSET 7.75947 0.938293 5.60832
                CHANNELS 3 Zrotation Xrotation Yrotation
                JOINT lIndex2
                {
                  OFFSET 2.54057 -0.884171 1.56538
                  CHANNELS 3 Zrotation Xrotation Yrotation
                  End Site
                  {
                    OFFSET 1.62519 -0.234802 1.16502
                  }
                }
              }
              JOINT lMid1
              {
                OFFSET 8.24714 1.18213 3.41376
                CHANNELS 3 Zrotation Xrotation Yrotation
                JOINT lMid2
                {
                  OFFSET 3.10165 -0.590103 1.0647
                  CHANNELS 3 Zrotation Xrotation Yrotation
                  End Site
                  {
                    OFFSET 2.48547 -0.328903 0.83742
                  }
                }
              }
              JOINT lRing1
              {
                OFFSET 8.82822 0.546677 1.51678
                CHANNELS 3 Zrotation Xrotation Yrotation
                JOINT lRing2
                {
                  OFFSET 2.60934 -0.819778 -0.0198488
                  CHANNELS 3 Zrotation Xrotation Yrotation
                  End Site
                  {
                    OFFSET 2.33842 -0.294052 0.168128
                  }
                }
              }
              JOINT lPinky1
              {
                OFFSET 8.27202 -0.0477905 -0.4584
                CHANNELS 3 Zrotation Xrotation Yrotation
                JOINT lPinky2
                {
                  OFFSET 1.82734 -0.647385 -0.700984
                  CHANNELS 3 Zrotation Xrotation Yrotation
                  End Site
                  {
                    OFFSET 1.69225 -0.51767 -0.607171
                  }
                }
              }
            }
          }
        }
      }
    }
  }
  JOINT rButtock
  {
    OFFSET -8.77824 4.35084 1.2192
    CHANNELS 3 Zrotation Xrotation Yrotation
    JOINT rThigh
    {
      OFFSET 0 -1.70687 -2.19456
      CHANNELS 3 Zrotation Xrotation Yrotation
      JOINT rShin
      {
        OFFSET 0 -36.8199 0.73152
        CHANNELS 3 Zrotation Xrotation Yrotation
        JOINT rFoot
        {
          OFFSET 0.73152 -45.1104 -5.12064
          CHANNELS 3 Zrotation Xrotation Yrotation
          End Site
          {
            OFFSET -1.1221 -3.69964 12.103
          }
        }
      }
    }
  }
  JOINT lButtock
  {
    OFFSET 8.77824 4.35084 1.2192
    CHANNELS 3 Zrotation Xrotation Yrotation
    JOINT lThigh
    {
      OFFSET 0 -1.70687 -2.19456
      CHANNELS 3 Zrotation Xrotation Yrotation
      JOINT lShin
      {
        OFFSET 0 -36.8199 0.73152
        CHANNELS 3 Zrotation Xrotation Yrotation
        JOINT lFoot
        {
          OFFSET -0.73152 -45.1104 -5.12064
          CHANNELS 3 Zrotation Xrotation Yrotation
          End Site
          {
            OFFSET 1.1221 -3.69964 12.103
          }
        }
      }
    }
  }
}
MOTION
Frames:	4
Frame Time:	0.00833333
48.274 78.1367 2.93113 13.9937 1.60704 89.2461 -4.0478 21.7633 3.51406 1.12935 -1.61879 1.23789 2.11243 -8.4045 0.401815 1.19917 13.6185 0.557536 -0 0 0 -0 0 0 5.3294e-014 1.67578e-012 1.31695e-014 14.5047 2.40449 62.0751 -19.4449 -12.3292 37.3488 -0.00251884 -1.43292 -0.201425 -4.08008e-010 7.31925e-010 1.54699e-010 -7.10805e-010 1.26689e-009 2.66915e-010 -4.08009e-010 7.31931e-010 1.54689e-010 7.73091 5.47488 0.417314 -4.08006e-010 7.31929e-010 1.54702e-010 2.90554 0.965183 0.102902 -4.07999e-010 7.31932e-010 1.54704e-010 10.2786 0.731801 0.0259123 -4.08008e-010 7.31932e-010 1.54709e-010 2.22167 -0.733487 -0.20892 5.32581e-014 1.67578e-012 1.30701e-014 -7.02609 3.17337 -63.5372 19.2927 -12.1475 -36.9896 0.00414475 1.83793 -0.258394 -2.30653e-010 -6.89411e-010 1.28809e-010 -3.9492e-010 -1.19386e-009 2.25334e-010 -2.30655e-010 -6.89411e-010 1.28819e-010 -7.73091 5.47488 -0.417314 -2.3065e-010 -6.89411e-010 1.28809e-010 -2.90554 0.965183 -0.102902 -2.30655e-010 -6.89412e-010 1.2881e-010 -10.2786 0.731801 -0.0259123 -2.30639e-010 -6.89407e-010 1.28809e-010 -2.22167 -0.733487 0.20892 -2.03217e-016 0 -3.88251e-019 -18.0686 -9.2019 -8.53817 -0.774048 55.6486 1.39681 -3.8624 -27.0332 -7.16614 2.03217e-016 0 3.88251e-019 16.6737 -3.66044 11.9075 0.639529 51.123 -1.08211 0.00584042 -25.1599 -0.666488 
48.265 78.1228 2.90334 13.9959 1.60124 89.2239 -4.03167 21.7617 3.52928 1.1243 -1.61153 1.24295 2.07283 -8.40434 0.397518 1.26165 13.5901 0.556969 -0 0 0 -0 0 0 6.60495e-014 1.78618e-012 -2.34884e-014 14.4568 2.42944 62.045 -19.4668 -12.3556 37.4006 -0.00258506 -1.45248 -0.204177 3.70357e-010 7.41481e-010 2.74209e-010 6.34411e-010 1.28262e-009 4.72791e-010 3.70354e-010 7.41485e-010 2.74199e-010 7.73091 5.47488 0.417314 3.70358e-010 7.41483e-010 2.74211e-010 2.90554 0.965183 0.102902 3.70365e-010 7.41486e-010 2.74212e-010 10.2786 0.731801 0.0259123 3.70354e-010 7.41486e-010 2.74217e-010 2.22167 -0.733487 -0.20892 6.59789e-014 1.78617e-012 -2.36123e-014 -6.99077 3.2039 -63.5022 19.3175 -12.177 -37.0477 0.0039274 1.79103 -0.251796 -1.08768e-009 -7.63906e-010 -4.46586e-011 -1.87692e-009 -1.32416e-009 -7.16621e-011 -1.08768e-009 -7.63906e-010 -4.46484e-011 -7.73091 5.47488 -0.417314 -1.08768e-009 -7.63907e-010 -4.46587e-011 -2.90554 0.965183 -0.102902 -1.08768e-009 -7.63907e-010 -4.46576e-011 -10.2786 0.731801 -0.0259123 -1.08766e-009 -7.63903e-010 -4.46604e-011 -2.22167 -0.733487 0.20892 -2.03217e-016 0 -3.88251e-019 -18.0495 -9.22056 -8.49768 -0.775035 55.6683 1.39765 -3.85666 -27.0389 -7.15058 2.03217e-016 0 3.88251e-019 16.6614 -3.65793 11.8954 0.639893 51.1333 -1.08246 -0.000950796 -25.2086 -0.677362 
48.2577 78.1151 2.87821 14.0041 1.5866 89.1994 -4.00835 21.762 3.53439 1.13173 -1.59274 1.24586 2.00364 -8.40071 0.395525 1.38024 13.5519 0.566895 -0 0 0 -0 0 0 7.71801e-014 1.48191e-012 -1.06201e-013 14.3719 2.46671 62.0132 -19.4929 -12.387 37.4624 -0.00274391 -1.49731 -0.210482 1.54815e-009 5.87889e-010 4.21135e-010 2.67102e-009 1.01573e-009 7.25991e-010 1.54815e-009 5.87891e-010 4.21125e-010 7.73091 5.47488 0.417314 1.54815e-009 5.8789e-010 4.21136e-010 2.90554 0.965183 0.102902 1.54816e-009 5.87891e-010 4.21136e-010 10.2786 0.731801 0.0259123 1.54815e-009 5.87893e-010 4.21141e-010 2.22167 -0.733487 -0.20892 7.7057e-014 1.4819e-012 -1.06372e-013 -6.95507 3.24101 -63.4383 19.3541 -12.2207 -37.1339 0.00364601 1.72686 -0.242768 -2.1853e-009 -7.07458e-010 -2.86109e-010 -3.77565e-009 -1.22831e-009 -4.85616e-010 -2.1853e-009 -7.07457e-010 -2.86098e-010 -7.73091 5.47488 -0.417314 -2.1853e-009 -7.07458e-010 -2.86109e-010 -2.90554 0.965183 -0.102902 -2.1853e-009 -7.07458e-010 -2.86107e-010 -10.2786 0.731801 -0.0259123 -2.18529e-009 -7.07455e-010 -2.86112e-010 -2.22167 -0.733487 0.20892 -2.03217e-016 0 -3.88251e-019 -18.0111 -9.21967 -8.43874 -0.774655 55.6581 1.39666 -3.84689 -27.0336 -7.12943 2.03217e-016 0 3.88251e-019 16.6565 -3.63338 11.8785 0.639522 51.1234 -1.08198 -0.00824083 -25.279 -0.688612 
48.2605 78.1148 2.8926 14.0129 1.56822 89.182 -3.97946 21.7664 3.52901 1.1421 -1.57285 1.24619 1.93414 -8.40067 0.395971 1.50148 13.5089 0.580825 -0 0 0 -0 0 0 8.46598e-014 1.07832e-012 -1.89435e-013 14.2804 2.50372 61.9847 -19.5184 -12.4179 37.5231 -0.00292758 -1.54597 -0.217325 2.51407e-009 4.06475e-010 5.34029e-010 4.34184e-009 7.00972e-010 9.20697e-010 2.51407e-009 4.06475e-010 5.34019e-010 7.73091 5.47488 0.417314 2.51407e-009 4.06474e-010 5.3403e-010 2.90554 0.965183 0.102902 2.51408e-009 4.06474e-010 5.34028e-010 10.2786 0.731801 0.0259123 2.51406e-009 4.06476e-010 5.34034e-010 2.22167 -0.733487 -0.20892 8.44929e-014 1.07831e-012 -1.89654e-013 -6.92772 3.27265 -63.3718 19.3887 -12.2619 -37.2156 0.00340212 1.6671 -0.234362 -3.01519e-009 -6.13855e-010 -4.72652e-010 -5.21174e-009 -1.06769e-009 -8.05659e-010 -3.01519e-009 -6.13853e-010 -4.7264e-010 -7.73091 5.47488 -0.417314 -3.01519e-009 -6.13855e-010 -4.72652e-010 -2.90554 0.965183 -0.102902 -3.01519e-009 -6.13855e-010 -4.72649e-010 -10.2786 0.731801 -0.0259123 -3.01518e-009 -6.13852e-010 -4.72657e-010 -2.22167 -0.733487 0.20892 -2.03217e-016 0 -3.88251e-019 -17.9705 -9.21005 -8.3863 -0.773728 55.6361 1.39505 -3.83606 -27.0222 -7.10828 2.03217e-016 0 3.88251e-019 16.6565 -3.60736 11.8581 0.638928 51.1077 -1.08134 -0.0113929 -25.3427 -0.69236 
